HIERARCHY
ROOT Hips
{
	OFFSET 0.00000 0.00000 0.00000
	CHANNELS 6 Xposition Yposition Zposition Zrotation Yrotation Xrotation 
	JOINT LHipJoint
	{
		OFFSET 0 0 0
		CHANNELS 3 Zrotation Yrotation Xrotation
		JOINT LeftUpLeg
		{
			OFFSET 1.65412 -1.54119 0.76744
			CHANNELS 3 Zrotation Yrotation Xrotation
			JOINT LeftLeg
			{
				OFFSET 2.19550 -6.03209 0.00000
				CHANNELS 3 Zrotation Yrotation Xrotation
				JOINT LeftFoot
				{
					OFFSET 2.38814 -6.56138 0.00000
					CHANNELS 3 Zrotation Yrotation Xrotation
					JOINT LeftToeBase
					{
						OFFSET 0.17337 -0.47632 1.75875
						CHANNELS 3 Zrotation Yrotation Xrotation
						End Site
						{
							OFFSET 0.00000 -0.00000 0.92050
						}
					}
				}
			}
		}
	}
	JOINT RHipJoint
	{
		OFFSET 0 0 0
		CHANNELS 3 Zrotation Yrotation Xrotation
		JOINT RightUpLeg
		{
			OFFSET -1.40291 -1.54119 0.76744
			CHANNELS 3 Zrotation Yrotation Xrotation
			JOINT RightLeg
			{
				OFFSET -2.22156 -6.10370 0.00000
				CHANNELS 3 Zrotation Yrotation Xrotation
				JOINT RightFoot
				{
					OFFSET -2.46840 -6.78188 0.00000
					CHANNELS 3 Zrotation Yrotation Xrotation
					JOINT RightToeBase
					{
						OFFSET -0.15659 -0.43024 1.84117
						CHANNELS 3 Zrotation Yrotation Xrotation
						End Site
						{
							OFFSET -0.00000 -0.00000 0.95587
						}
					}
				}
			}
		}
	}
	JOINT LowerBack
	{
		OFFSET 0 0 0
		CHANNELS 3 Zrotation Yrotation Xrotation
		JOINT Spine
		{
			OFFSET -0.01936 1.82120 -0.32061
			CHANNELS 3 Zrotation Yrotation Xrotation
			JOINT Spine1
			{
				OFFSET -0.00532 1.85767 -0.00071
				CHANNELS 3 Zrotation Yrotation Xrotation
				JOINT Neck
				{
					OFFSET 0 0 0
					CHANNELS 3 Zrotation Yrotation Xrotation
					JOINT Neck1
					{
						OFFSET -0.10687 1.58194 0.10810
						CHANNELS 3 Zrotation Yrotation Xrotation
						JOINT Head
						{
							OFFSET 0.15346 1.57382 -0.25612
							CHANNELS 3 Zrotation Yrotation Xrotation
							End Site
							{
								OFFSET 0.05334 1.61251 -0.10513
							}
						}
					}
				}
				JOINT LeftShoulder
				{
					OFFSET 0 0 0
					CHANNELS 3 Zrotation Yrotation Xrotation
					JOINT LeftArm
					{
						OFFSET 2.85758 0.89498 -0.01485
						CHANNELS 3 Zrotation Yrotation Xrotation
						JOINT LeftForeArm
						{
							OFFSET 4.79185 -0.00000 -0.00000
							CHANNELS 3 Zrotation Yrotation Xrotation
							JOINT LeftHand
							{
								OFFSET 2.65553 -0.00000 0.00000
								CHANNELS 3 Zrotation Yrotation Xrotation
								JOINT LeftFingerBase
								{
									OFFSET 0 0 0
									CHANNELS 3 Zrotation Yrotation Xrotation
									JOINT LeftHandIndex1
									{
										OFFSET 0.74390 -0.00000 0.00000
										CHANNELS 3 Zrotation Yrotation Xrotation
										End Site
										{
											OFFSET 0.59975 -0.00000 0.00000
										}
									}
								}
								JOINT LThumb
								{
									OFFSET 0 0 0
									CHANNELS 3 Zrotation Yrotation Xrotation
									End Site
									{
										OFFSET 0.60891 -0.00000 0.60891
									}
								}
							}
						}
					}
				}
				JOINT RightShoulder
				{
					OFFSET 0 0 0
					CHANNELS 3 Zrotation Yrotation Xrotation
					JOINT RightArm
					{
						OFFSET -2.93906 0.88031 0.02490
						CHANNELS 3 Zrotation Yrotation Xrotation
						JOINT RightForeArm
						{
							OFFSET -4.77254 -0.00000 -0.00000
							CHANNELS 3 Zrotation Yrotation Xrotation
							JOINT RightHand
							{
								OFFSET -2.75995 -0.00000 -0.00000
								CHANNELS 3 Zrotation Yrotation Xrotation
								JOINT RightFingerBase
								{
									OFFSET 0 0 0
									CHANNELS 3 Zrotation Yrotation Xrotation
									JOINT RightHandIndex1
									{
										OFFSET -0.70162 -0.00000 0.00000
										CHANNELS 3 Zrotation Yrotation Xrotation
										End Site
										{
											OFFSET -0.56566 -0.00000 0.00000
										}
									}
								}
								JOINT RThumb
								{
									OFFSET 0 0 0
									CHANNELS 3 Zrotation Yrotation Xrotation
									End Site
									{
										OFFSET -0.57430 -0.00000 0.57430
									}
								}
							}
						}
					}
				}
			}
		}
	}
}
MOTION
Frames: 13
Frame Time: .0083333
-0.7329 15.6284 -0.5049 -187.2770 55.3378 -187.5290 0.0000 0.0000 0.0000 -32.7036 -7.1437 -0.4781 1.9547 8.7711 25.0818 1.0681 4.2825 -21.5096 0.0366 -1.2351 -3.3958 0.0000 0.0000 0.0000 15.4874 13.6899 -25.6210 -7.2790 -15.5624 49.9216 -0.3181 -9.4395 -17.9397 -0.1455 2.4580 -6.7732 -5.3361 -0.0047 9.0867 -1.1683 -0.6233 -0.6868 1.8636 -0.1440 -5.7859 -12.0349 -7.1514 -12.3883 7.8260 -8.7809 22.8169 3.6629 -4.0914 10.2224 0.0000 -0.0000 0.0000 -86.2870 -1.8578 23.4605 16.5437 -26.2523 -3.8833 -0.0000 0.0000 -2.7094 13.2594 12.7166 2.9693 -7.1250 0.0000 -0.0000 -12.6512 42.6778 0.7377 0.0000 -0.0000 0.0000 87.8723 -5.6742 23.0866 -13.7013 22.3060 -2.7137 0.0000 0.0000 13.1352 -16.9235 17.1247 -5.1197 7.1250 -0.0000 -0.0000 7.2561 -12.2357 5.5996
-0.6428 15.6383 -0.5705 -187.1030 55.1789 -187.3110 0.0000 0.0000 0.0000 -32.6677 -6.9589 0.2629 1.8496 8.5456 24.3838 1.0653 4.1874 -21.4304 0.0356 -1.2180 -3.3488 0.0000 0.0000 0.0000 15.4965 13.9212 -25.9492 -6.7721 -15.1370 48.0071 -0.3047 -9.8292 -18.2023 -0.2203 3.0218 -8.3393 -5.2775 -0.0435 9.1621 -1.1437 -0.6738 -0.7052 1.8641 -0.1689 -5.8446 -12.0588 -7.1760 -12.3636 7.9122 -8.8338 22.7469 3.6897 -4.1099 10.2037 -0.0000 -0.0000 0.0000 -86.1985 -1.9254 24.0954 16.9832 -26.8357 -4.0798 -0.0000 0.0000 -3.3029 13.4359 12.5074 2.9616 -7.1250 0.0000 -0.0000 -12.4431 42.4867 0.7848 -0.0000 -0.0000 0.0000 87.9715 -5.7752 22.8235 -13.7461 22.3706 -2.7307 0.0000 0.0000 13.3188 -17.0303 16.8708 -5.0800 7.1250 -0.0000 -0.0000 7.1768 -12.4851 5.4999
-0.5548 15.6489 -0.6325 -186.9640 55.0002 -187.1490 0.0000 0.0000 0.0000 -32.6348 -6.6812 1.0256 1.7360 8.2931 23.6078 1.0369 4.1396 -21.1498 0.0252 -1.0251 -2.8180 0.0000 0.0000 0.0000 15.4825 14.2103 -26.1946 -6.2715 -14.6864 46.0619 -0.2764 -10.2675 -18.3565 -0.2499 3.2164 -8.8818 -5.2321 -0.0671 9.3353 -1.1476 -0.7137 -0.7398 1.8416 -0.1862 -5.9772 -12.0022 -7.2075 -12.2433 7.9730 -8.9157 22.6118 3.6916 -4.1401 10.1410 0.0000 0.0000 0.0000 -86.0575 -1.9627 24.7533 17.4351 -27.4278 -4.2859 -0.0000 0.0000 -3.8632 13.4718 12.4062 2.9462 -7.1250 0.0000 -0.0000 -12.3865 42.3893 0.8115 0.0000 0.0000 0.0000 88.0716 -5.9419 22.7027 -13.8035 22.4531 -2.7526 0.0000 0.0000 13.2474 -17.2130 16.9830 -5.1706 7.1250 -0.0000 -0.0000 7.0594 -12.3501 5.4285
-0.4654 15.6573 -0.6959 -187.0580 54.8653 -187.2040 0.0000 0.0000 0.0000 -32.7365 -6.2892 1.7928 1.6225 8.0310 22.8082 1.0056 4.1484 -20.8713 0.0282 -1.0844 -2.9811 0.0000 0.0000 0.0000 15.3396 14.4343 -26.3598 -5.7777 -14.2094 44.0829 -0.2140 -10.8449 -18.2850 -0.2363 3.1282 -8.6358 -5.3113 -0.0555 9.4552 -1.1870 -0.7141 -0.7044 1.8456 -0.1833 -6.0075 -11.7997 -7.2628 -12.1958 7.8933 -9.0230 22.3973 3.6121 -4.1858 10.0519 0.0000 0.0000 0.0000 -85.9378 -2.1229 25.4543 17.8332 -27.9430 -4.4708 -0.0000 0.0000 -4.3832 13.5476 12.4618 2.9765 -7.1250 0.0000 -0.0000 -12.3336 42.4524 0.7883 0.0000 0.0000 0.0000 88.1682 -5.9571 22.5414 -13.8358 22.4995 -2.7650 0.0000 0.0000 13.1704 -17.2523 17.1285 -5.2259 7.1250 -0.0000 -0.0000 7.0384 -12.1962 5.4348
-0.3740 15.6619 -0.7620 -187.1300 54.7936 -187.2760 0.0000 0.0000 0.0000 -32.7924 -5.6813 2.5651 1.5016 7.7401 21.9273 0.9762 4.1332 -20.5925 0.0345 -1.1991 -3.2967 0.0000 0.0000 0.0000 15.2448 14.6386 -26.4398 -5.2959 -13.7094 42.0858 -0.1179 -11.6281 -18.0887 -0.2923 3.4766 -9.6087 -5.3494 -0.0439 9.5251 -1.1958 -0.7040 -0.6412 1.8568 -0.1783 -5.9806 -11.7971 -7.2965 -12.1689 7.9267 -9.0809 22.1968 3.6129 -4.2134 9.9829 -0.0000 0.0000 0.0000 -85.8956 -2.2645 26.1210 18.2557 -28.4833 -4.6705 -0.0000 0.0000 -4.9656 13.6449 12.6104 3.0337 -7.1250 0.0000 -0.0000 -12.2849 42.6106 0.7363 -0.0000 0.0000 0.0000 88.1628 -5.9733 22.6157 -13.8912 22.5790 -2.7862 0.0000 0.0000 12.9547 -17.2639 17.2250 -5.2580 7.1250 -0.0000 -0.0000 7.0342 -12.0957 5.4463
-0.2824 15.6696 -0.8251 -186.9510 54.6058 -187.1180 0.0000 0.0000 0.0000 -32.6527 -5.0917 3.3988 1.3648 7.3941 20.8884 0.9416 3.9999 -20.1931 0.0344 -1.1975 -3.2925 0.0000 0.0000 0.0000 15.2733 14.7914 -26.5489 -4.8422 -13.2038 40.1363 -0.0061 -12.4235 -17.7493 -0.3476 3.7883 -10.4819 -5.2499 -0.0719 9.5999 -1.1776 -0.7318 -0.5928 1.8246 -0.1958 -5.9704 -11.9208 -7.3353 -12.1950 8.0992 -9.1473 22.1019 3.6830 -4.2375 9.9767 0.0000 0.0000 0.0000 -85.8205 -2.3859 26.7075 18.6645 -28.9996 -4.8671 -0.0000 0.0000 -5.5224 13.5976 12.6325 3.0281 -7.1250 0.0000 -0.0000 -12.3321 42.6280 0.7339 0.0000 0.0000 0.0000 88.1352 -6.0594 22.7797 -13.9704 22.6924 -2.8167 0.0000 0.0000 12.6449 -17.3194 17.4598 -5.3452 7.1250 -0.0000 -0.0000 7.0063 -11.8480 5.4605
-0.1872 15.6803 -0.8919 -187.2240 54.2852 -187.3570 0.0000 0.0000 0.0000 -32.8680 -4.7916 4.4674 1.2237 7.0161 19.7632 0.9050 3.9795 -19.8332 0.0600 -1.5812 -4.3495 0.0000 0.0000 0.0000 14.9623 14.8748 -26.5985 -4.4167 -12.6951 38.2378 0.0972 -13.0170 -17.2520 -0.3266 3.6731 -10.1587 -5.4516 -0.1404 9.6158 -1.2227 -0.8421 -0.5025 1.9061 -0.2466 -5.8744 -11.9645 -7.3720 -12.2853 8.1846 -9.2023 22.0382 3.7091 -4.2575 9.9840 -0.0000 -0.0000 0.0000 -85.7940 -2.5322 27.0863 19.0209 -29.4447 -5.0411 -0.0000 0.0000 -5.8082 13.5798 12.6748 3.0339 -7.1250 0.0000 -0.0000 -12.3584 42.6686 0.7229 -0.0000 -0.0000 0.0000 88.1157 -6.1294 22.8612 -14.0207 22.7643 -2.8361 0.0000 0.0000 12.5224 -17.4023 17.7968 -5.4720 7.1250 -0.0000 -0.0000 6.9648 -11.4920 5.4793
-0.0896 15.6842 -0.9581 -188.2840 53.9342 -188.2780 0.0000 0.0000 0.0000 -33.5963 -4.4841 5.6398 1.0789 6.6022 18.5421 0.8599 4.1065 -19.4695 0.0886 -1.9200 -5.2846 0.0000 0.0000 0.0000 14.1557 14.9551 -26.5668 -4.0248 -12.1934 36.4196 0.1652 -13.3924 -16.8995 -0.2695 3.3393 -9.2248 -6.1335 -0.1675 9.7270 -1.4134 -0.9638 -0.4561 2.1059 -0.2846 -5.8736 -11.9253 -7.4002 -12.2377 8.2350 -9.2659 21.8935 3.7107 -4.2818 9.9308 -0.0000 -0.0000 0.0000 -85.7664 -2.6030 27.4470 19.3295 -29.8261 -5.1937 -0.0000 0.0000 -5.9830 13.7586 12.7259 3.0875 -7.1250 0.0000 -0.0000 -12.2136 42.7378 0.6930 -0.0000 -0.0000 0.0000 88.1919 -6.2443 22.6968 -14.0223 22.7666 -2.8367 0.0000 0.0000 12.6048 -17.3517 17.2780 -5.3020 7.1250 -0.0000 -0.0000 6.9781 -12.0315 5.4115
0.0079 15.6908 -1.0196 -188.5380 53.7134 -188.4160 0.0000 0.0000 0.0000 -33.7405 -4.1086 6.7367 0.9214 6.1156 17.1201 0.8019 4.2971 -19.0060 0.0946 -1.9840 -5.4614 0.0000 0.0000 0.0000 13.8470 15.2359 -26.5902 -3.6626 -11.6974 34.6696 0.1869 -13.5899 -16.9139 -0.1901 2.8076 -7.7436 -6.3192 -0.1832 9.7911 -1.4920 -1.0139 -0.4817 2.1352 -0.3010 -5.9318 -11.9037 -7.4237 -12.1144 8.3265 -9.3341 21.7209 3.7311 -4.3070 9.8571 -0.0000 0.0000 0.0000 -85.7092 -2.6613 27.7677 19.5850 -30.1391 -5.3214 -0.0000 0.0000 -6.1754 13.7709 12.6130 3.0634 -7.1250 0.0000 -0.0000 -12.1745 42.6260 0.7248 -0.0000 0.0000 0.0000 88.3895 -6.3461 22.2361 -13.9807 22.7070 -2.8206 0.0000 0.0000 12.9270 -17.4925 15.6216 -4.8508 7.1250 -0.0000 -0.0000 6.8295 -13.7240 5.0510
0.1066 15.7021 -1.0829 -188.4080 53.5507 -188.2280 0.0000 0.0000 0.0000 -33.6273 -3.6775 7.9055 0.7610 5.5711 15.5450 0.7344 4.5547 -18.4724 0.1077 -2.1162 -5.8269 0.0000 0.0000 0.0000 13.7007 15.6753 -26.6002 -3.3345 -11.2178 33.0181 0.1533 -13.5193 -17.2687 -0.0848 1.8788 -5.1707 -6.2705 -0.2032 9.7771 -1.4887 -1.0336 -0.4757 2.1141 -0.3128 -5.9165 -11.8651 -7.4545 -12.1128 8.3686 -9.3948 21.6162 3.7296 -4.3294 9.8265 -0.0000 0.0000 0.0000 -85.6542 -2.7518 28.1298 19.8487 -30.4596 -5.4544 -0.0000 0.0000 -6.4890 13.7203 12.6661 3.0644 -7.1250 0.0000 -0.0000 -12.2324 42.6739 0.7136 -0.0000 0.0000 0.0000 88.4910 -6.4693 22.1183 -14.0323 22.7809 -2.8406 0.0000 0.0000 12.8821 -17.6799 14.4314 -4.5420 7.1250 -0.0000 -0.0000 6.6717 -14.9358 4.7597
0.2058 15.7107 -1.1486 -188.7350 53.2757 -188.5470 0.0000 0.0000 0.0000 -33.7766 -3.0403 9.1735 0.6135 5.0129 13.9454 0.6621 4.6776 -17.7789 0.1247 -2.2765 -6.2705 0.0000 0.0000 0.0000 13.2271 16.1111 -26.4301 -3.0313 -10.7456 31.4266 0.1382 -13.6051 -17.6087 -0.0423 1.3275 -3.6504 -6.5283 -0.2188 9.9017 -1.5335 -1.0905 -0.4289 2.2208 -0.3320 -5.9297 -11.8187 -7.4793 -12.1012 8.3753 -9.4408 21.5061 3.7165 -4.3485 9.7882 0.0000 -0.0000 0.0000 -85.6707 -2.8351 28.5690 20.0761 -30.7339 -5.5702 -0.0000 0.0000 -6.8873 13.8653 12.8849 3.1505 -7.1250 0.0000 -0.0000 -12.1592 42.9078 0.6379 0.0000 -0.0000 0.0000 88.5409 -6.5895 21.9525 -14.0852 22.8563 -2.8611 0.0000 0.0000 12.7986 -17.6422 14.1870 -4.4569 7.1250 -0.0000 -0.0000 6.6918 -15.1921 4.7373
0.3071 15.7179 -1.2138 -189.2000 52.8867 -188.9480 0.0000 0.0000 0.0000 -33.9436 -2.3322 10.4880 0.4667 4.3820 12.1539 0.5846 4.6124 -16.8609 0.1015 -2.0544 -5.6561 0.0000 0.0000 0.0000 12.6616 16.4426 -26.2958 -2.7623 -10.2999 29.9534 0.1817 -13.9632 -17.5924 -0.0606 1.5885 -4.3697 -6.8569 -0.2585 9.9571 -1.6289 -1.1811 -0.3543 2.3176 -0.3681 -5.8704 -11.8335 -7.5257 -12.1067 8.4830 -9.5264 21.4116 3.7434 -4.3796 9.7719 0.0000 0.0000 0.0000 -85.6452 -2.9263 28.9469 20.3217 -31.0279 -5.6962 -0.0000 0.0000 -7.0923 13.9231 12.9834 3.1879 -7.1250 0.0000 -0.0000 -12.1330 43.0124 0.6047 0.0000 0.0000 0.0000 88.6261 -6.6222 21.6979 -14.0861 22.8576 -2.8615 0.0000 0.0000 12.8472 -17.6409 14.1514 -4.4457 7.1250 -0.0000 -0.0000 6.6920 -15.2291 4.7320
0.4143 15.7264 -1.2813 -189.3490 52.5652 -189.0050 0.0000 0.0000 0.0000 -33.9183 -1.7806 11.9251 0.3259 3.6694 10.1483 0.5016 4.7354 -15.9517 0.0808 -1.8338 -5.0465 0.0000 0.0000 0.0000 12.2992 16.8269 -26.2090 -2.5317 -9.8954 28.6387 0.1853 -14.1491 -17.8446 -0.0602 1.5829 -4.3544 -7.0273 -0.3445 9.8658 -1.6573 -1.3053 -0.3335 2.3993 -0.4266 -5.7828 -11.8561 -7.5448 -12.0618 8.5575 -9.5685 21.3374 3.7678 -4.3953 9.7471 -0.0000 -0.0000 0.0000 -85.6564 -2.9215 28.9576 20.4785 -31.2145 -5.7773 -0.0000 0.0000 -6.9954 13.8460 12.9495 3.1614 -7.1250 0.0000 -0.0000 -12.1926 42.9704 0.6206 -0.0000 -0.0000 0.0000 88.5971 -6.7822 21.9408 -14.1146 22.8983 -2.8725 0.0000 0.0000 12.6579 -17.7866 14.1824 -4.4942 7.1250 -0.0000 -0.0000 6.5933 -15.1836 4.6677
